#!OML:ASF H:\Dans Jumps\Project 1\Capture day 1\Session 1\subject.ASF
:FULLY-SPECIFIED
:DEGREES
123
root 0.486914 17.1946 -14.4035 11.7734 -1.9218 -2.94137
lowerback 5.07879 -0.321117 1.12097
upperback 3.62595 -0.392137 2.27976
thorax 0.889039 -0.202404 1.72897
lowerneck -14.7947 0.718201 -2.26227
upperneck 24.7167 1.54891 0.164285
head 10.3244 0.512899 0.643568
rclavicle -2.08724e-015 6.16232e-015
rhumerus -18.2271 -12.3206 -78.468
rradius 30.2327
rwrist 26.7371
rhand -20.6575 -25.8867
rfingers 7.12502
rthumb 5.70502 -55.7899
lclavicle -2.08724e-015 6.16232e-015
lhumerus -19.1145 -3.56191 82.3831
lradius 27.5615
lwrist 13.3495
lhand -24.2883 -1.62684
lfingers 7.12502
lthumb 2.19895 28.3416
rfemur -27.9596 -1.70441 21.567
rtibia 33.4141
rfoot -16.7347 -3.83811
rtoes -0.534447
lfemur -28.2071 10.3847 -19.0785
ltibia 33.7383
lfoot -14.6754 7.01815
ltoes -10.3501
124
root 0.486999 17.1643 -14.4526 12.1265 -1.9837 -2.94525
lowerback 5.52133 -0.299824 1.05517
upperback 3.67525 -0.356449 2.27398
thorax 0.693324 -0.185838 1.76119
lowerneck -14.8799 0.720789 -2.26807
upperneck 24.1935 1.55206 0.158115
head 10.1512 0.519286 0.639826
rclavicle -2.38542e-015 -3.63776e-014
rhumerus -18.3842 -12.3377 -78.3308
rradius 30.1759
rwrist 26.7932
rhand -20.4629 -25.7888
rfingers 7.12502
rthumb 5.89295 -55.6869
lclavicle -2.38542e-015 -3.63776e-014
lhumerus -19.2481 -3.73272 82.2151
lradius 27.6294
lwrist 13.6756
lhand -24.24 -1.42257
lfingers 7.12502
lthumb 2.24554 28.5454
rfemur -29.0146 -1.63161 21.5869
rtibia 34.2749
rfoot -16.8986 -3.89978
rtoes -0.628215
lfemur -29.264 10.534 -19.2
ltibia 34.5966
lfoot -14.8704 7.02633
ltoes -10.4708
125
root 0.487091 17.1323 -14.5038 12.486 -2.04493 -2.96772
lowerback 5.9974 -0.278217 1.00314
upperback 3.73313 -0.31978 2.27284
thorax 0.488083 -0.16854 1.79033
lowerneck -14.9772 0.72474 -2.26899
upperneck 23.6455 1.55754 0.145629
head 9.97288 0.526728 0.633291
rclavicle 5.96354e-015 -6.16232e-015
rhumerus -18.5602 -12.3606 -78.1807
rradius 30.1039
rwrist 26.903
rhand -20.2707 -25.6495
rfingers 7.12502
rthumb 6.07849 -55.5423
lclavicle 5.96354e-015 -6.16232e-015
lhumerus -19.3985 -3.87782 82.036
lradius 27.6764
lwrist 14.0039
lhand -24.2117 -1.25701
lfingers 7.12502
lthumb 2.27295 28.7106
rfemur -30.0865 -1.56712 21.6305
rtibia 35.1404
rfoot -17.0626 -3.95446
rtoes -0.723091
lfemur -30.3515 10.6784 -19.3038
ltibia 35.4828
lfoot -15.0671 7.03677
ltoes -10.5721
126
root 0.487375 17.0987 -14.5567 12.8461 -2.10712 -3.00707
lowerback 6.51118 -0.256545 0.964899
upperback 3.79986 -0.282191 2.27514
thorax 0.271388 -0.150557 1.81514
lowerneck -15.0902 0.732156 -2.25933
upperneck 23.0778 1.56792 0.122626
head 9.79201 0.536364 0.621966
rclavicle 1.78906e-015 -1.47101e-014
rhumerus -18.7659 -12.3746 -78.0181
rradius 30.0305
rwrist 27.048
rhand -20.0801 -25.4713
rfingers 7.12502
rthumb 6.26245 -55.3587
lclavicle 1.78906e-015 -1.47101e-014
lhumerus -19.5746 -3.98716 81.8443
lradius 27.7184
lwrist 14.3467
lhand -24.151 -0.994696
lfingers 7.12502
lthumb 2.33157 28.9723
rfemur -31.1671 -1.51509 21.6961
rtibia 36.0093
rfoot -17.2272 -3.99433
rtoes -0.812171
lfemur -31.4567 10.8183 -19.3912
ltibia 36.3911
lfoot -15.2686 7.05341
ltoes -10.65
